{
  "accessors": [
    {
      "bufferView": 2,
      "componentType": 5126,
      "count": 65532,
      "max": [
        0.26841399073600769,
        0.25808799266815186,
        0.34296900033950806
      ],
      "min": [
        -0.26245298981666565,
        -0.25934299826622009,
        -0.2989020049571991
      ],
      "type": "VEC3"
    },
    {
      "bufferView": 2,
      "byteOffset": 786384,
      "componentType": 5126,
      "count": 65532,
      "max": [
        0.99999356269836426,
        0.99995720386505127,
        0.99999761581420898
      ],
      "min": [
        -0.99998962879180908,
        -0.99997508525848389,
        -0.99999964237213135
      ],
      "type": "VEC3"
    },
    {
      "bufferView": 1,
      "componentType": 5126,
      "count": 65532,
      "max": [
        0.99989998340606689,
        0.94889998435974121
      ],
      "min": [
        0,
        0
      ],
      "type": "VEC2"
    },
    {
      "bufferView": 0,
      "componentType": 5125,
      "count": 356370,
      "max": [
        65531
      ],
      "min": [
        0
      ],
      "type": "SCALAR"
    },
    {
      "bufferView": 2,
      "byteOffset": 1572768,
      "componentType": 5126,
      "count": 27303,
      "max": [
        0.26718598604202271,
        0.25789999961853027,
        0.34284099936485291
      ],
      "min": [
        -0.26245298981666565,
        -0.25934299826622009,
        -0.2988399863243103
      ],
      "type": "VEC3"
    },
    {
      "bufferView": 2,
      "byteOffset": 1900404,
      "componentType": 5126,
      "count": 27303,
      "max": [
        0.99999356269836426,
        0.99991309642791748,
        0.99999761581420898
      ],
      "min": [
        -0.99992823600769043,
        -0.99999237060546875,
        -0.99999773502349854
      ],
      "type": "VEC3"
    },
    {
      "bufferView": 1,
      "byteOffset": 524256,
      "componentType": 5126,
      "count": 27303,
      "max": [
        0.99099999666213989,
        0.94770002365112305
      ],
      "min": [
        0.0088999997824430466,
        0.004999999888241291
      ],
      "type": "VEC2"
    },
    {
      "bufferView": 0,
      "byteOffset": 1425480,
      "componentType": 5125,
      "count": 111945,
      "max": [
        27302
      ],
      "min": [
        0
      ],
      "type": "SCALAR"
    },
    {
      "bufferView": 2,
      "byteOffset": 2228040,
      "componentType": 5126,
      "count": 55054,
      "max": [
        0.17186799645423889,
        0.17568999528884888,
        0.48921701312065125
      ],
      "min": [
        -0.17236299812793732,
        -0.17113099992275238,
        0.30667701363563538
      ],
      "type": "VEC3"
    },
    {
      "bufferView": 2,
      "byteOffset": 2888688,
      "componentType": 5126,
      "count": 55054,
      "max": [
        0.99995505809783936,
        0.99988055229187012,
        0.99992048740386963
      ],
      "min": [
        -0.99970000982284546,
        -0.99982959032058716,
        -0.99998736381530762
      ],
      "type": "VEC3"
    },
    {
      "bufferView": 1,
      "byteOffset": 742680,
      "componentType": 5126,
      "count": 55054,
      "max": [
        1,
        0.99919998645782471
      ],
      "min": [
        0,
        0
      ],
      "type": "VEC2"
    },
    {
      "bufferView": 0,
      "byteOffset": 1873260,
      "componentType": 5125,
      "count": 259476,
      "max": [
        55053
      ],
      "min": [
        0
      ],
      "type": "SCALAR"
    }
  ],
  "asset": {
    "extras": {
      "author": "Science Museum Group (https://sketchfab.com/sciencemuseum)",
      "license": "CC0-1.0 (http://creativecommons.org/publicdomain/zero/1.0/)",
      "source": "https://sketchfab.com/3d-models/pharmacy-leech-jar-2cfa52d82f67438aaef81aee48235159",
      "title": "Pharmacy Leech Jar"
    },
    "generator": "Sketchfab-7.80.0",
    "version": "2.0"
  },
  "bufferViews": [
    {
      "buffer": 0,
      "byteLength": 2911164,
      "byteOffset": 0,
      "name": "floatBufferViews",
      "target": 34963
    },
    {
      "buffer": 0,
      "byteLength": 1183112,
      "byteOffset": 2911164,
      "byteStride": 8,
      "name": "floatBufferViews",
      "target": 34962
    },
    {
      "buffer": 0,
      "byteLength": 3549336,
      "byteOffset": 4094276,
      "byteStride": 12,
      "name": "floatBufferViews",
      "target": 34962
    }
  ],
  "buffers": [
    {
      "byteLength": 7643612,
      "uri": "scene.bin"
    }
  ],
  "images": [
    {
      "uri": "textures/leeches_jar_only_final.001_baseColor.jpeg"
    },
    {
      "uri": "textures/leeches_jar_only_final.001_metallicRoughness.png"
    },
    {
      "uri": "textures/leeches_lid_only_final_baseColor.jpeg"
    }
  ],
  "materials": [
    {
      "doubleSided": true,
      "emissiveFactor": [
        0,
        0,
        0
      ],
      "name": "leeches_jar_only_final.001",
      "pbrMetallicRoughness": {
        "baseColorFactor": [
          1,
          1,
          1,
          1
        ],
        "baseColorTexture": {
          "index": 0,
          "texCoord": 0
        },
        "metallicFactor": 0,
        "metallicRoughnessTexture": {
          "index": 1,
          "texCoord": 0
        },
        "roughnessFactor": 1
      }
    },
    {
      "doubleSided": true,
      "emissiveFactor": [
        0,
        0,
        0
      ],
      "name": "leeches_lid_only_final",
      "pbrMetallicRoughness": {
        "baseColorFactor": [
          1,
          1,
          1,
          1
        ],
        "baseColorTexture": {
          "index": 2,
          "texCoord": 0
        },
        "metallicFactor": 0,
        "metallicRoughnessTexture": {
          "index": 1,
          "texCoord": 0
        },
        "roughnessFactor": 1
      }
    }
  ],
  "meshes": [
    {
      "primitives": [
        {
          "attributes": {
            "NORMAL": 1,
            "POSITION": 0,
            "TEXCOORD_0": 2
          },
          "indices": 3,
          "material": 0,
          "mode": 4
        }
      ]
    },
    {
      "primitives": [
        {
          "attributes": {
            "NORMAL": 5,
            "POSITION": 4,
            "TEXCOORD_0": 6
          },
          "indices": 7,
          "material": 0,
          "mode": 4
        }
      ]
    },
    {
      "primitives": [
        {
          "attributes": {
            "NORMAL": 9,
            "POSITION": 8,
            "TEXCOORD_0": 10
          },
          "indices": 11,
          "material": 1,
          "mode": 4
        }
      ]
    }
  ],
  "nodes": [
    {
      "children": [
        1
      ],
      "name": "RootNode (gltf orientation matrix)",
      "rotation": [
        -0.70710678118654746,
        -0,
        -0,
        0.70710678118654757
      ]
    },
    {
      "children": [
        2
      ],
      "matrix": [
        0.99995452165603638,
        0,
        -0.0095389671623706818,
        0,
        0,
        1,
        0,
        0,
        0.0095389671623706818,
        0,
        0.99995452165603638,
        0,
        -0.00090756837744265795,
        0,
        3.2765099604148418e-05,
        1
      ],
      "name": "RootNode (model correction matrix)"
    },
    {
      "children": [
        3,
        4,
        5
      ],
      "name": "leeches_scene.obj.cleaner.materialmerger.gles"
    },
    {
      "mesh": 0,
      "name": ""
    },
    {
      "mesh": 1,
      "name": ""
    },
    {
      "mesh": 2,
      "name": ""
    }
  ],
  "samplers": [
    {
      "magFilter": 9729,
      "minFilter": 9987,
      "wrapS": 10497,
      "wrapT": 10497
    }
  ],
  "scene": 0,
  "scenes": [
    {
      "name": "OSG_Scene",
      "nodes": [
        0
      ]
    }
  ],
  "textures": [
    {
      "sampler": 0,
      "source": 0
    },
    {
      "sampler": 0,
      "source": 1
    },
    {
      "sampler": 0,
      "source": 2
    }
  ]
}

